<svg xmlns="http://www.w3.org/2000/svg" xmlns:xlink="http://www.w3.org/1999/xlink" viewBox="0 0 600 400"><defs><style>.a,.b,.c,.g,.h,.i,.j{fill:none;}.b{stroke:#e6e6e6;}.c{stroke:#ccd6eb;}.d{isolation:isolate;}.e{fill:#666;}.f{clip-path:url(#a);}.g{stroke:#d9534f;}.g,.h,.i{stroke-linecap:round;stroke-linejoin:round;}.g,.h,.i,.j{stroke-width:2px;}.h{stroke:#f0ad4e;}.i{stroke:#5cb85c;}.j{stroke:#000;stroke-dasharray:8 6;}</style><clipPath id="a"><rect class="a" x="51" y="36" width="533" height="298"/></clipPath></defs><title>report_plot_thumb</title><path class="b" d="M51,334.5H584"/><path class="b" d="M51,260.5H584"/><path class="b" d="M51,185.5H584"/><path class="b" d="M51,111.5H584"/><path class="b" d="M51,35.5H584"/><path class="c" d="M50.5,334v10"/><path class="c" d="M157.5,334v10"/><path class="c" d="M263.5,334v10"/><path class="c" d="M370.5,334v10"/><path class="c" d="M476.5,334v10"/><path class="c" d="M584.5,334v10"/><g class="d"><g class="d"><path class="e" d="M305,367.66a1.64,1.64,0,0,1-1.32-.59,2.39,2.39,0,0,1-.5-1.58,2.35,2.35,0,0,1,.5-1.58,1.84,1.84,0,0,1,2.69,0,2.34,2.34,0,0,1,.5,1.57,2.38,2.38,0,0,1-.5,1.6A1.71,1.71,0,0,1,305,367.66Zm-1.75,4.55,6.83-9.11H311l-6.83,9.11h-0.91Zm1.76-5.13q1,0,1-1.6a2.19,2.19,0,0,0-.26-1.15,0.8,0.8,0,0,0-1.42,0,2.68,2.68,0,0,0,0,2.32A0.8,0.8,0,0,0,305,367.08Zm4.18,4.92a1.64,1.64,0,0,1-1.32-.59,2.77,2.77,0,0,1,0-3.16,1.84,1.84,0,0,1,2.69,0,2.33,2.33,0,0,1,.5,1.57,2.38,2.38,0,0,1-.5,1.6A1.71,1.71,0,0,1,309.19,372Zm0-.58q1,0,1-1.6a2.17,2.17,0,0,0-.27-1.15,0.8,0.8,0,0,0-1.42,0,2.69,2.69,0,0,0,0,2.32A0.79,0.79,0,0,0,309.2,371.42Z"/><path class="e" d="M322.56,371.77a10.19,10.19,0,0,1-2.75.45,4.14,4.14,0,0,1-3.17-1.18,5.65,5.65,0,0,1,0-6.73,4.09,4.09,0,0,1,3.14-1.2,10.39,10.39,0,0,1,2.75.39v1.14a9.36,9.36,0,0,0-2.75-.61,2.65,2.65,0,0,0-2.18,1,4.16,4.16,0,0,0-.78,2.69,3.93,3.93,0,0,0,.83,2.67,2.93,2.93,0,0,0,2.33,1,4.6,4.6,0,0,0,1.33-.22v-2.82h1.22v3.51Z"/><path class="e" d="M328.43,372.22A4.05,4.05,0,0,1,325.3,371a5.64,5.64,0,0,1,0-6.72,4.12,4.12,0,0,1,3.16-1.2,11.76,11.76,0,0,1,2.73.38v1.15a9.19,9.19,0,0,0-2.75-.62,2.65,2.65,0,0,0-2.19,1,4.18,4.18,0,0,0-.77,2.7,3.87,3.87,0,0,0,.83,2.62,2.82,2.82,0,0,0,2.26,1,5.61,5.61,0,0,0,2.64-.76v1.05A6,6,0,0,1,328.43,372.22Z"/></g></g><path class="c" d="M51,334.5H584"/><g class="d"><path class="e" d="M19.26,197.69a4.05,4.05,0,0,1-1.19,3.12,4.76,4.76,0,0,1-3.36,1.1,4.72,4.72,0,0,1-3.36-1.12,4.12,4.12,0,0,1-1.2-3.16,11.76,11.76,0,0,1,.38-2.73h1.15a9.19,9.19,0,0,0-.62,2.75,2.65,2.65,0,0,0,1,2.19,4.18,4.18,0,0,0,2.7.77,3.87,3.87,0,0,0,2.62-.83,2.82,2.82,0,0,0,1-2.26,5.61,5.61,0,0,0-.76-2.64H18.6A6,6,0,0,1,19.26,197.69Z"/><path class="e" d="M19.19,190.58a2.79,2.79,0,0,1-.91,2.18,3.49,3.49,0,0,1-2.42.81,3.46,3.46,0,0,1-2.43-.82,3.2,3.2,0,0,1,0-4.44,3.44,3.44,0,0,1,2.42-.82,3.48,3.48,0,0,1,2.45.82A2.91,2.91,0,0,1,19.19,190.58Zm-0.87,0q0-1.83-2.47-1.83t-2.44,1.81q0,1.8,2.46,1.8T18.33,190.56Z"/><path class="e" d="M19,181.72h-1.2A2.67,2.67,0,0,1,19.19,184a1.73,1.73,0,0,1-.52,1.32,2,2,0,0,1-1.42.49H12.68v-1.15h4.2a1.86,1.86,0,0,0,1-.21,0.78,0.78,0,0,0,.3-0.69,2.55,2.55,0,0,0-1.39-2H12.68v-1.15H19v1.15Z"/><path class="e" d="M19,178.25H12.68V177.1h1.2a2.66,2.66,0,0,1-1.34-2.24,1.72,1.72,0,0,1,.52-1.32,2,2,0,0,1,1.41-.49H19v1.15h-4.2a1.84,1.84,0,0,0-1,.21,0.78,0.78,0,0,0-.3.69,2.55,2.55,0,0,0,1.39,2H19v1.15Z"/><path class="e" d="M19.19,168.9a1.83,1.83,0,0,1-.5,1.37,1.92,1.92,0,0,1-1.4.49H13.55v0.8H12.68v-0.8H11.53l-0.11-1.15h1.27v-1.66h0.87v1.66h3.53a1,1,0,0,0,1.25-1.08,2.53,2.53,0,0,0-.08-0.56H19A3.57,3.57,0,0,1,19.19,168.9Z"/></g><g class="f"><path class="g" d="M51,333.06l5.33,0.12,5.33,0.16,5.33,0h5.33l5.33-.06,5.33-.08,5.33-.08,5.33-.08L99,333l5.33-.11,5.33-.11,5.33-.11,5.33-.13,5.33-.17,5.33-.21,5.33-.23,5.33-.31,5.33-.45,5.33-.67,5.33-.94,5.33-1.29,5.33-1.83,5.33-2.61,5.33-3.41,5.33-4.42,5.33-5.91,5.33-7.16,5.33-8.18,5.33-9.36,5.33-9.95,5.33-10.21,5.33-11.94,5.33-12.1L232.22,231l5.33-10.61,5.33-14.89,5.33-15.38,5.33-9.36,5.33-5.63,5.33-8.47,5.33-6.34,5.33-9.81,5.33-4.43,5.33,2.54,5.33-6.8,5.33-5.81,5.33,4,5.33,1.46,5.33-5.63,5.33,6.37,5.33,12.32,5.33,6.27,5.33,6,5.33,6.21,5.33,0.66,5.33,1.68,5.33-.43,5.33-24.07,5.33-42.19,5.33-10.52,5.33-9.62L381.46,83l5.33,32.2,5.33-39.7,5.33-7.82,5.33,98.9,5.33,58.69,5.33,18.38,5.33,17.5,5.33,12.36,5.33,9.53,5.33,7.75,5.33,5.21,5.33,4.17,5.33,3.68,5.33,2.9,5.33,0.73,5.33,1.21,5.33,3.51,5.33,2.64,5.33-5L488.06,293l5.33-1.55L498.72,307l5.33,9.41,5.33,7,5.33,4.77,5.33,0.15,5.33-1.52,5.33,1.64,5.33,3.06,5.33,1.08,5.33,0.39L552,333.3l5.33,0.26,5.33,0.13,5.33,0,5.33,0.1,5.33,0.1H584"/></g><g class="f"><path class="g" d="M51,332.73L56.33,333l5.33,0.27,5.33,0h5.33l5.33-.06,5.33-.09,5.33-.08,5.33-.06,5.33-.09,5.33-.13,5.33-.15,5.33-.15,5.33-.17,5.33-.2,5.33-.23,5.33-.27,5.33-.39,5.33-.56,5.33-.85,5.33-1.23,5.33-1.72,5.33-2.44,5.33-3.51,5.33-4.59,5.33-6,5.33-7.74,5.33-9.24,5.33-10.6,5.33-11.95,5.33-12.45L216.23,246l5.33-14.35,5.33-14.16,5.33-11.09L237.55,195l5.33-15.72,5.33-15.12,5.33-8.38,5.33-5.5,5.33-9.43,5.33-6.29,5.33-6.72,5.33,0.25,5.33,5,5.33-5.62,5.33-5.46,5.33,6.09,5.33,5,5.33-3.18,5.33,9.19L322.83,152l5.33,7.07,5.33,8.68,5.33,8.22,5.33,3,5.33,4.48,5.33,2.21,5.33-20,5.33-35.74,5.33-5.6,5.33-3.28,5.33-4.54,5.33,22.09,5.33-52.17,5.33-6.85,5.33,104.62,5.33,56.35,5.33,16.72,5.33,15.25,5.33,11.26,5.33,8.84,5.33,6.86,5.33,4.7,5.33,3.73,5.33,3.34,5.33,2.69,5.33,0.52,5.33,0.81,5.33,3L477.4,321l5.33,0.41,5.33-2,5.33,1.73,5.33,4.79,5.33,2.79,5.33,1.55,5.33,1,5.33,0.34h5.33L530.7,332l5.33,0.8,5.33,0.42,5.33,0.21,5.33,0.2,5.33,0.12,5.33,0.06,5.33,0,5.33,0.06,5.33,0.06H584"/></g><g class="f"><path class="h" d="M51,332.47l5.33,0.21,5.33,0.2H67l5.33,0,5.33-.08,5.33-.09,5.33-.09,5.33-.12,5.33-.12,5.33-.15,5.33-.19,5.33-.22,5.33-.27,5.33-.26,5.33-.25,5.33-.33,5.33-.46,5.33-.7,5.33-1L157.6,327l5.33-2.28,5.33-3.45,5.33-4.74,5.33-6.07,5.33-8,5.33-10.11,5.33-11.77,5.33-13,5.33-13.79,5.33-14.12,5.33-14.11,5.33-15.43,5.33-14.52,5.33-12.08,5.33-13.76,5.33-16.88,5.33-15.73,5.33-10.27,5.33-6,5.33-7.85,5.33-7,5.33-4.39,5.33-2.87,5.33-1.11,5.33-4.57,5.33,3.15,5.33,12.81,5.33,8.09,5.33,3.52,5.33,6,5.33,7.86,5.33,3.53,5.33,4.38,5.33,7.19,5.33,5.8,5.33,7.87,5.33,11.69,5.33,6.41,5.33-10.6,5.33-12,5.33-29.2,5.33-9.82,5.33,37.2,5.33,11.11,5.33,8.94,5.33,53.53,5.33,46.92,5.33,17.26,5.33,11.48,5.33,8.11,5.33,5.54,5.33,4.26,5.33,2.74,5.33,1.89,5.33,1.33,5.33,0.79,5.33,0.62,5.33,0.48,5.33,0.36,5.33,0.27,5.33,0.21,5.33,0.08,5.33,0.09,5.33,0.18L504,333.4l5.33,0.1,5.33,0.05,5.33,0.07,5.33,0.07,5.33,0,5.33,0,5.33,0,5.33,0,5.33,0,5.33,0,5.33,0H584"/></g><g class="f"><path class="h" d="M51,332.46l5.33,0.22,5.33,0.19,5.33,0,5.33,0,5.33-.08,5.33-.09,5.33-.08,5.33-.1,5.33-.11,5.33-.15,5.33-.2,5.33-.23,5.33-.27,5.33-.23,5.33-.22,5.33-.3,5.33-.41,5.33-.61,5.33-.91,5.33-1.33,5.33-2,5.33-3.07,5.33-4.28,5.33-5.58,5.33-7.31,5.33-9.35,5.33-11,5.33-12.49,5.33-13.6,5.33-14,5.33-14.07,5.33-15.62,5.33-15.24L232.22,187l5.33-14.49,5.33-17.8,5.33-16.14,5.33-10.89,5.33-6.89,5.33-7.91,5.33-6.63,5.33-4.48,5.33-2.94,5.33-.83,5.33-2.86,5.33,3.7,5.33,11.73,5.33,8.71,5.33,4,5.33,5,5.33,7.08,5.33,3.46,5.33,3.52,5.33,6.85,5.33,5.94,5.33,10.4,5.33,11.5,5.33,2.87,5.33-14,5.33-14.49,5.33-29.33,5.33-9.77,5.33,37.6,5.33,13.15,5.33,10.71,5.33,51.93,5.33,46.44,5.33,18.52,5.33,12.54,5.33,8.92,5.33,6.19,5.33,4.73,5.33,3,5.33,2.17,5.33,1.42,5.33,0.86,5.33,0.75,5.33,0.54,5.33,0.41,5.33,0.27,5.33,0.17h5.33l5.33,0,5.33,0.3L504,333.3l5.33,0.12,5.33,0.06,5.33,0.09,5.33,0.09,5.33,0,5.33,0,5.33,0,5.33,0,5.33,0.06,5.33,0,5.33,0H568l5.33,0,5.33,0H584"/></g><g class="f"><path class="h" d="M51,332.59l5.33,0.1,5.33-1L67,330.26l5.33-.8,5.33-2.68L83,323.71l5.33-2.7,5.33-2.12L99,319.38l5.33,2.88,5.33,3.27L115,326.1l5.33-2.29,5.33-6.53,5.33-9.19,5.33-6.75,5.33-2.85,5.33,0.32,5.33,2.6,5.33,3.88,5.33,4.25,5.33,2.14,5.33-1.89,5.33-4.36,5.33-5.37,5.33-6.45,5.33-8.35,5.33-10.17,5.33-13.5,5.33-13.42,5.33-12.65,5.33-13.1,5.33-11.08,5.33-12,5.33-17.92,5.33-14.55,5.33-14.08,5.33-14.5,5.33-5.47,5.33-5.64,5.33-5.72,5.33-6.48,5.33-6.74,5.33-6.86,5.33-8.69,5.33-6.24,5.33-3.23,5.33-.18,5.33-1.87,5.33-4.79,5.33-2.47,5.33,1.76L333.49,78l5.33,9.79,5.33,14,5.33,19.77,5.33,19,5.33,12.32,5.33,14.24,5.33,16.63,5.33,25.23,5.33,24,5.33,18.82,5.33,16.36,5.33,14,5.33,12.26,5.33,10,5.33,8.63,5.33,6.68,5.33,4.29,5.33,2.84,5.33,1.9,5.33,1.5,5.33,1.08,5.33,0.72,5.33,0.52,5.33,0.38,5.33,0.26,5.33,0.21,5.33,0.19,5.33,0.13,5.33,0.06,5.33,0.09,5.33,0.09,5.33,0,5.33,0H584"/></g><g class="f"><path class="h" d="M51,332.05l5.33,0.16L61.66,331,67,329.14l5.33-.62,5.33-2.58L83,322.39l5.33-3.47,5.33-2.63L99,317l5.33,3.87,5.33,4.12,5.33,0.61,5.33-2.51,5.33-6.84,5.33-9.35,5.33-6.54,5.33-2.34,5.33,0.94,5.33,3.11,5.33,4.14,5.33,4.41,5.33,2.14,5.33-2.14,5.33-4.6,5.33-5.57,5.33-6.43,5.33-8,5.33-9.9,5.33-13.75,5.33-13.81,5.33-12.7,5.33-13.14,5.33-11,5.33-12.19,5.33-18.51,5.33-14.74,5.33-14.3L253.54,137l5.33-5.47,5.33-5.74,5.33-5.83,5.33-6.55,5.33-6.9,5.33-7.1L290.85,90l5.33-6.74,5.33-3,5.33,0.48,5.33-1.7,5.33-5.28,5.33-2.47,5.33,2.7,5.33,2.93,5.33,10.89,5.33,15.36,5.33,20.53L354.81,144l5.33,12.56,5.33,13.68,5.33,16.65,5.33,25.21,5.33,23.74,5.33,18.47,5.33,16.15,5.33,14,5.33,12,5.33,9.71,5.33,8.51,5.33,6.38,5.33,4,5.33,2.64,5.33,1.73,5.33,1.29,5.33,0.89,5.33,0.6,5.33,0.44,5.33,0.33,5.33,0.22,5.33,0.16,5.33,0.15,5.33,0.11,5.33,0.05,5.33,0.07,5.33,0.07,5.33,0,5.33,0H584"/></g><g class="f"><path class="i" d="M51,333l5.33,0.17,5.33,0.18H72.32l5.33,0,5.33-.08,5.33-.1,5.33-.15,5.33-.22,5.33-.16,5.33-.08,5.33-.08,5.33-.07,5.33-.06,5.33-.1,5.33-.11,5.33-.17,5.33-.29,5.33-.44,5.33-.69,5.33-1,5.33-1.43,5.33-1.85,5.33-2.31,5.33-3.16,5.33-4.36,5.33-5.51,5.33-6.46,5.33-7.47,5.33-8.42,5.33-8.93,5.33-9.55,5.33-10.38,5.33-11L237.55,237l5.33-13,5.33-14,5.33-11.18,5.33-9.73,5.33-11.39,5.33-10.85,5.33-9,5.33-6.85,5.33-6.55,5.33-13.72,5.33-11,5.33-5.09,5.33-10.31,5.33-6.44,5.33,0.5,5.33-1.12,5.33-4.53,5.33-2.13,5.33,2.69,5.33,2.51,5.33,6.54,5.33,9.1,5.33,4.51,5.33-.25,5.33,7.91,5.33,13.08,5.33,14.89,5.33,19.52,5.33,13,5.33,10.22,5.33,12.21L408.11,217l5.33,14.79,5.33,18.16L424.1,262l5.33,8.79,5.33,7.9,5.33,6.6,5.33,3.59,5.33,6.26,5.33,5.57,5.33,0.11,5.33,2.23,5.33,6.09,5.33,5.7,5.33,4,5.33,2.18,5.33,1.25,5.33,1.8,5.33,2.46,5.33,1.84,5.33,1.24,5.33,0.67,5.33,0.17,5.33-.25,5.33-.37,5.33-.15,5.33,0.35L552,331l5.33,1,5.33,0.76,5.33,0.27,5.33,0.32,5.33,0.32,5.33,0"/></g><g class="f"><path class="i" d="M51,333.22l5.33,0.09,5.33,0.09H72.32l5.33,0,5.33-.05,5.33-.07,5.33-.1L99,333l5.33-.15,5.33-.1,5.33-.08,5.33-.06,5.33-.07,5.33-.08,5.33-.1,5.33-.17,5.33-.27,5.33-.42,5.33-.58,5.33-.76,5.33-1,5.33-1.4,5.33-1.76,5.33-2.33,5.33-3.37,5.33-4.44,5.33-5.15,5.33-6,5.33-6.5,5.33-7.15,5.33-8.06,5.33-8.81,5.33-9.28,5.33-9.56,5.33-11.77,5.33-13.6,5.33-9.85,5.33-8.11,5.33-9.83,5.33-9.75,5.33-9.55,5.33-7.8,5.33-8.26,5.33-16.3,5.33-13.71,5.33-8.58,5.33-14,5.33-7.87,5.33,0.23,5.33-.88,5.33-6.46,5.33-8.37,5.33-2.79,5.33-1,5.33,2.8,5.33,6.5,5.33,4.1,5.33-.66,5.33,6.1,5.33,8.85,5.33,15.4L386.79,155l5.33,14.34,5.33,9.74,5.33,11,5.33,9.3,5.33,16.37,5.33,20.55,5.33,14.44,5.33,9.84,5.33,7.66,5.33,5.77,5.33,3.33,5.33,7.41,5.33,5,5.33-3.08,5.33,2.32,5.33,10.49,5.33,8.85,5.33,5,5.33,2.23,5.33,0.46,5.33,2.37,5.33,4.08,5.33,2.68,5.33,2,5.33,1.05,5.33,0.06,5.33-.72L536,327l5.33-.06,5.33,0.75,5.33,1.49,5.33,1.66,5.33,1.28,5.33,0.47,5.33,0.48,5.33,0.48,5.33,0"/></g><g class="f"><path class="j" d="M51,334H93.64l5.33-.07h10.66l5.33-.07h5.33l5.33-.07,5.33-.15,5.33-.45,5.33-.52,5.33-.89,5.33-1.19,5.33-2.38,5.33-2.83,5.33-3.8,5.33-4.69,5.33-5.59,5.33-6.7,5.33-8.34,5.33-7.82,5.33-8.72,5.33-9.61,5.33-10.65,5.33-10.06,5.33-9.76,5.33-13.19,5.33-10,5.33-14,5.33-11.62,5.33-15.42,5.33-13.56,5.33-6.63,5.33-13.11,5.33-6.78,5.33-5.14,5.33-5.29,5.33-1.49,5.33-1.86,5.33-1.49,5.33-1,5.33-2.16,5.33,0.3,5.33,1.34,5.33,2,5.33-2.24,5.33,2.53,5.33-1.12,5.33,0.89,5.33,2.31,5.33,2.91,5.33,2.91,5.33,5.21,5.33,8.72,5.33,9.31,5.33,13,5.33,12.44,5.33,13.11,5.33,12.81,5.33,16.09,5.33,15.64,5.33,11.85,5.33,14.38,5.33,13.19,5.33,10.13,5.33,7.82,5.33,7.08,5.33,6.33,5.33,4.47,5.33,4.1,5.33,2.76,5.33,3.58,5.33,2.46,5.33,1.94,5.33,1.64,5.33,1.56,5.33,1.34,5.33,1.19,5.33,0.74,5.33,1,5.33,0.22,5.33,0.45,5.33,0.3,5.33,0.07,5.33,0.15,5.33,0.07h5.33L552,334h32"/></g><g class="d"><g class="d"><path class="e" d="M51,353.2A2.3,2.3,0,0,1,49,352a5.41,5.41,0,0,1-.76-3,5.35,5.35,0,0,1,.77-3,2.35,2.35,0,0,1,4,0,5.32,5.32,0,0,1,.77,3,5.4,5.4,0,0,1-.77,3.05A2.36,2.36,0,0,1,51,353.2Zm0-.79q1.68,0,1.68-3.42T51,345.65q-1.66,0-1.65,3.37T51,352.4Z"/></g></g><g class="d"><g class="d"><path class="e" d="M151.56,353v-0.93a7.25,7.25,0,0,1,1.87-2.35l0.61-.54a2.94,2.94,0,0,0,1.17-2.1,1.38,1.38,0,0,0-.4-1,1.53,1.53,0,0,0-1.1-.38,4.1,4.1,0,0,0-1.95.64v-0.93a4.89,4.89,0,0,1,2.1-.5,2.6,2.6,0,0,1,1.79.6,2,2,0,0,1,.68,1.6,2.37,2.37,0,0,1-.34,1.27,6.32,6.32,0,0,1-1.27,1.34l-0.41.35a4,4,0,0,0-1.47,2.06h3.45V353h-4.73Z"/><path class="e" d="M161,353.2a2.3,2.3,0,0,1-2-1.16,5.42,5.42,0,0,1-.76-3,5.35,5.35,0,0,1,.77-3,2.35,2.35,0,0,1,4,0,5.32,5.32,0,0,1,.77,3,5.4,5.4,0,0,1-.77,3.05A2.36,2.36,0,0,1,161,353.2Zm0-.79q1.68,0,1.68-3.42t-1.66-3.34q-1.65,0-1.65,3.37T161.06,352.4Z"/></g></g><g class="d"><g class="d"><path class="e" d="M261.39,353v-2.25h-3.58v-0.8l3.58-4.9h1v4.83h1.06v0.87h-1.06V353h-1Zm-2.54-3.12h2.61v-3.53Z"/><path class="e" d="M267.65,353.2a2.3,2.3,0,0,1-2-1.16,5.42,5.42,0,0,1-.76-3,5.35,5.35,0,0,1,.77-3,2.35,2.35,0,0,1,4,0,5.32,5.32,0,0,1,.77,3,5.4,5.4,0,0,1-.77,3.05A2.36,2.36,0,0,1,267.65,353.2Zm0-.79q1.68,0,1.68-3.42t-1.66-3.34q-1.65,0-1.65,3.37T267.66,352.4Z"/></g></g><g class="d"><g class="d"><path class="e" d="M365.74,348.88a2.31,2.31,0,0,1,1.91-1,2.26,2.26,0,0,1,1.71.69,2.45,2.45,0,0,1,.66,1.77,2.88,2.88,0,0,1-.74,2,2.47,2.47,0,0,1-1.89.8,2.37,2.37,0,0,1-2.06-1.06,5.06,5.06,0,0,1-.74-2.94,5.3,5.3,0,0,1,.85-3.21,2.82,2.82,0,0,1,2.4-1.14,6.77,6.77,0,0,1,1.77.3v0.92a5.43,5.43,0,0,0-1.84-.43Q365.74,345.64,365.74,348.88Zm3.21,1.71a2.24,2.24,0,0,0-.41-1.42,1.35,1.35,0,0,0-1.13-.52,1.63,1.63,0,0,0-1.15.45,1.43,1.43,0,0,0-.48,1.08,2.59,2.59,0,0,0,.46,1.6,1.46,1.46,0,0,0,1.22.6,1.34,1.34,0,0,0,1.09-.49A2,2,0,0,0,368.95,350.59Z"/><path class="e" d="M374.25,353.2a2.3,2.3,0,0,1-2-1.16,5.42,5.42,0,0,1-.76-3,5.35,5.35,0,0,1,.77-3,2.35,2.35,0,0,1,4,0,5.32,5.32,0,0,1,.77,3,5.4,5.4,0,0,1-.77,3.05A2.36,2.36,0,0,1,374.25,353.2Zm0-.79q1.68,0,1.68-3.42t-1.66-3.34q-1.65,0-1.65,3.37T374.26,352.4Z"/></g></g><g class="d"><g class="d"><path class="e" d="M473,348.67a2.25,2.25,0,0,1-1.17-1.79,1.84,1.84,0,0,1,.66-1.47,2.57,2.57,0,0,1,1.72-.56,2.51,2.51,0,0,1,1.59.48,1.51,1.51,0,0,1,.61,1.24,2.62,2.62,0,0,1-1.48,2.11,2.62,2.62,0,0,1,1.8,2.27,2,2,0,0,1-.75,1.63,2.94,2.94,0,0,1-1.95.63,2.89,2.89,0,0,1-1.89-.59,1.92,1.92,0,0,1-.72-1.56A2.75,2.75,0,0,1,473,348.67Zm0.57,0.43a3.68,3.68,0,0,0-.87.86,1.71,1.71,0,0,0-.23.92,1.46,1.46,0,0,0,.44,1.1,1.61,1.61,0,0,0,1.16.42,1.72,1.72,0,0,0,1.13-.36,1.24,1.24,0,0,0,.17-1.72,4.38,4.38,0,0,0-1-.78Zm0.77-.76a2,2,0,0,0,1.11-1.63,0.94,0.94,0,0,0-.37-0.77,1.53,1.53,0,0,0-1-.29,1.49,1.49,0,0,0-1,.29,0.9,0.9,0,0,0-.37.74,1.13,1.13,0,0,0,.33.8A5.59,5.59,0,0,0,474.32,348.34Z"/><path class="e" d="M480.85,353.2a2.3,2.3,0,0,1-2-1.16,5.41,5.41,0,0,1-.76-3,5.35,5.35,0,0,1,.77-3,2.35,2.35,0,0,1,4,0,5.32,5.32,0,0,1,.77,3,5.4,5.4,0,0,1-.77,3.05A2.36,2.36,0,0,1,480.85,353.2Zm0-.79q1.68,0,1.68-3.42t-1.66-3.34q-1.66,0-1.65,3.37T480.86,352.4Z"/></g></g><g class="d"><g class="d"><path class="e" d="M564.79,353v-0.79h1.59v-6.27l-1.59.4v-0.82l2.65-.66v7.35H569V353h-4.24Z"/><path class="e" d="M573.54,353.2a2.3,2.3,0,0,1-2-1.16,5.41,5.41,0,0,1-.76-3,5.35,5.35,0,0,1,.77-3,2.35,2.35,0,0,1,4,0,5.32,5.32,0,0,1,.77,3,5.4,5.4,0,0,1-.77,3.05A2.36,2.36,0,0,1,573.54,353.2Zm0-.79q1.68,0,1.68-3.42t-1.66-3.34q-1.66,0-1.65,3.37T573.55,352.4Z"/><path class="e" d="M580.5,353.2a2.3,2.3,0,0,1-2-1.16,5.42,5.42,0,0,1-.76-3,5.35,5.35,0,0,1,.77-3,2.35,2.35,0,0,1,4,0,5.32,5.32,0,0,1,.77,3,5.4,5.4,0,0,1-.77,3.05A2.36,2.36,0,0,1,580.5,353.2Zm0-.79q1.68,0,1.68-3.42t-1.66-3.34q-1.65,0-1.65,3.37T580.51,352.4Z"/></g></g><g class="d"><g class="d"><path class="e" d="M32.49,339.2a2.3,2.3,0,0,1-2-1.16,5.42,5.42,0,0,1-.76-3,5.35,5.35,0,0,1,.77-3,2.35,2.35,0,0,1,4,0,5.32,5.32,0,0,1,.77,3,5.4,5.4,0,0,1-.77,3.05A2.36,2.36,0,0,1,32.49,339.2Zm0-.79q1.68,0,1.68-3.42t-1.66-3.34q-1.65,0-1.65,3.37T32.5,338.4Z"/></g></g><g class="d"><g class="d"><path class="e" d="M30.7,264v-0.79h1.59v-6.27l-1.59.4v-0.82l2.65-.66v7.35h1.59V264H30.7Z"/></g></g><g class="d"><g class="d"><path class="e" d="M30,190v-0.93a7.25,7.25,0,0,1,1.87-2.35l0.61-.54a2.94,2.94,0,0,0,1.17-2.1,1.38,1.38,0,0,0-.4-1,1.53,1.53,0,0,0-1.1-.38,4.1,4.1,0,0,0-1.95.64v-0.93a4.89,4.89,0,0,1,2.1-.5,2.6,2.6,0,0,1,1.79.6,2,2,0,0,1,.68,1.6,2.37,2.37,0,0,1-.34,1.27,6.32,6.32,0,0,1-1.27,1.34l-0.41.35a4,4,0,0,0-1.47,2.06h3.45V190H30Z"/></g></g><g class="d"><g class="d"><path class="e" d="M30.16,114.94v-1a5.26,5.26,0,0,0,1.79.45,1.74,1.74,0,0,0,1.23-.44,1.5,1.5,0,0,0,.48-1.15q0-1.68-2.35-1.68H30.9v-0.71h0.37q2.2,0,2.2-1.55A1.19,1.19,0,0,0,32,107.65a4.19,4.19,0,0,0-1.75.45v-0.92a5.71,5.71,0,0,1,1.83-.32q2.44,0,2.44,1.84a2.1,2.1,0,0,1-1.66,2,2.09,2.09,0,0,1,1.92,2.11,2.2,2.2,0,0,1-.74,1.76,3,3,0,0,1-2,.64A8.62,8.62,0,0,1,30.16,114.94Z"/></g></g><g class="d"><g class="d"><path class="e" d="M33.19,41V38.75H29.61v-0.8l3.58-4.9h1v4.83h1.06v0.87H34.18V41h-1Zm-2.54-3.12h2.61V34.35Z"/></g></g></svg>