<?xml version="1.0" encoding="utf-8"?>
<!-- Generator: Adobe Illustrator 22.0.0, SVG Export Plug-In . SVG Version: 6.00 Build 0)  -->
<svg version="1.1" id="Layer_1" xmlns="http://www.w3.org/2000/svg" xmlns:xlink="http://www.w3.org/1999/xlink" x="0px" y="0px"
	 viewBox="0 0 289 113" style="enable-background:new 0 0 289 113;" xml:space="preserve">
<style type="text/css">
	.st0{fill:#FFFFFF;}
	.st1{fill:#BE1622;}
	.st2{fill:#009640;}
	.st3{fill:#1D71B8;}
</style>
<g>
	<g>
		<path class="st0" d="M208.4,35.4c-11.9,0-21.6,9.7-21.6,21.6c0,11.9,9.7,21.6,21.6,21.6c11.9,0,21.6-9.7,21.6-21.6
			C230.1,45.1,220.4,35.4,208.4,35.4z M208.4,71.7c-8.1,0-14.6-6.6-14.6-14.6c0-8.1,6.6-14.6,14.6-14.6c8.1,0,14.6,6.6,14.6,14.6
			C223.1,65.1,216.5,71.7,208.4,71.7z"/>
		<polygon class="st0" points="240.9,90.7 230.2,90.7 220.5,78.9 226.8,73.7 		"/>
		
			<rect x="224.9" y="70.6" transform="matrix(0.7705 -0.6374 0.6374 0.7705 1.0738 162.7651)" class="st0" width="3.5" height="18.6"/>
		<path class="st0" d="M257.9,68c-2.6,2.3-6,3.7-9.7,3.7c-8.1,0-14.6-6.6-14.6-14.6c0-8.1,6.6-14.6,14.6-14.6c3.5,0,6.7,1.2,9.2,3.2
			c1.8-1.5,3.5-3.1,5.3-4.6c-3.8-3.5-8.9-5.6-14.5-5.6c-7.9,0-14.9,4.3-18.6,10.7c1.7,3.3,2.7,7,2.7,11c0,4-1,7.7-2.7,11
			c3.8,6.4,10.7,10.7,18.6,10.7c6.1,0,11.6-2.5,15.6-6.6C261.8,70.8,259.9,69.5,257.9,68z"/>
		<g>
			<rect x="207.3" y="50" class="st0" width="2.3" height="14.2"/>
			<rect x="201.4" y="55.9" class="st0" width="14.2" height="2.3"/>
		</g>
	</g>
	<g>
		<path class="st0" d="M46.4,34.3l12.3,32.9h0.2l12.3-32.9h9.2v42.7h-7.1V62.5L74,44l-0.2,0L61.2,77.1h-4.8L43.8,44l-0.2,0l0.7,18.4
			v14.6h-7.1V34.3H46.4z"/>
		<path class="st0" d="M102.5,77.7c-4.5,0-8.1-1.5-10.8-4.4c-2.7-2.9-4-6.7-4-11.3v-1.2c0-4.6,1.3-8.4,4-11.5c2.7-3,6-4.6,10-4.5
			c4.3,0,7.6,1.3,9.8,3.9c2.3,2.6,3.4,6.1,3.4,10.4v4.2H95.1l-0.1,0.1c0.1,2.5,0.9,4.6,2.2,6.2s3.2,2.4,5.6,2.4
			c1.9,0,3.6-0.2,4.9-0.7c1.4-0.5,2.7-1.1,4-2l2.3,4.7c-1.2,1.1-2.8,2-4.8,2.7C107.4,77.3,105.1,77.7,102.5,77.7z M101.7,50.4
			c-1.8,0-3.2,0.7-4.3,2.1c-1.1,1.4-1.8,3.2-2.1,5.3l0.1,0.1h12.6v-0.7c0-2-0.5-3.7-1.5-4.9S103.8,50.4,101.7,50.4z"/>
		<path class="st0" d="M119.4,61.6c0-5,1.1-9.1,3.3-12.2c2.2-3.1,5.3-4.7,9.2-4.7c1.9,0,3.6,0.4,5,1.2c1.4,0.8,2.7,2,3.7,3.5
			l0.7-4.1h5.9v31.7c0,4.1-1.3,7.2-3.8,9.5c-2.5,2.2-6.1,3.3-10.7,3.3c-1.5,0-3.2-0.2-5-0.7c-1.8-0.4-3.4-1-4.9-1.7l1.5-5.6
			c1.2,0.6,2.5,1.1,3.9,1.4c1.4,0.3,2.9,0.5,4.4,0.5c2.6,0,4.5-0.6,5.7-1.7c1.2-1.1,1.8-2.8,1.8-5.1v-3.3c-1,1.3-2.2,2.2-3.5,2.9
			s-2.9,1-4.7,1c-3.9,0-6.9-1.4-9.2-4.3c-2.2-2.8-3.3-6.6-3.3-11.2V61.6z M126.5,62.2c0,2.9,0.6,5.2,1.7,7c1.2,1.8,3,2.6,5.4,2.6
			c1.5,0,2.8-0.3,3.9-1c1-0.6,1.9-1.5,2.5-2.7V54.3c-0.7-1.2-1.5-2.1-2.6-2.7c-1-0.7-2.3-1-3.8-1c-2.4,0-4.3,1-5.4,3.1
			c-1.2,2.1-1.8,4.7-1.8,8V62.2z"/>
		<path class="st0" d="M173.8,77.1c-0.3-0.8-0.5-1.6-0.6-2.3c-0.2-0.8-0.3-1.5-0.3-2.3c-1,1.5-2.3,2.7-3.9,3.7s-3.4,1.5-5.4,1.5
			c-3.3,0-5.8-0.9-7.6-2.6c-1.8-1.7-2.7-4-2.7-7c0-3.1,1.2-5.5,3.6-7.2c2.4-1.7,5.8-2.6,10.2-2.6h5.5v-2.8c0-1.7-0.5-3-1.5-3.9
			c-1-0.9-2.4-1.4-4.2-1.4c-1.6,0-2.9,0.4-3.9,1.2c-1,0.8-1.4,1.8-1.4,3H155l0-0.2c-0.1-2.5,1-4.7,3.4-6.7c2.4-1.9,5.5-2.9,9.3-2.9
			c3.7,0,6.7,0.9,8.9,2.8c2.3,1.9,3.4,4.6,3.4,8.1v14.1c0,1.3,0.1,2.6,0.3,3.8c0.2,1.2,0.5,2.4,0.9,3.5H173.8z M165.1,71.9
			c1.8,0,3.4-0.4,4.9-1.3c1.4-0.9,2.4-1.9,2.9-3.1v-4.7h-5.7c-2.1,0-3.7,0.5-4.9,1.5c-1.2,1-1.8,2.2-1.8,3.6c0,1.2,0.4,2.2,1.2,2.9
			C162.5,71.6,163.6,71.9,165.1,71.9z"/>
	</g>
</g>
<g>
	<path class="st1" d="M91.4,78.3c-7,10.5-19,17.4-32.6,17.4c-21.6,0-39.2-17.6-39.2-39.2s17.6-39.2,39.2-39.2
		c16.5,0,30.6,10.2,36.4,24.6c0.9-0.3,1.8-0.6,2.7-0.8c-6.1-15.6-21.3-26.6-39.1-26.6c-23.2,0-42,18.8-42,42s18.8,42,42,42
		c14.6,0,27.5-7.5,35-18.8C93,79.3,92.2,78.8,91.4,78.3z"/>
	<path class="st2" d="M98,81.2c-8.2,13-22.7,21.7-39.2,21.7c-25.6,0-46.4-20.8-46.4-46.4c0-25.6,20.8-46.4,46.4-46.4
		c20,0,37.2,12.8,43.6,30.6c1.1,0,2.1,0.1,3.1,0.3c-6.5-19.6-25-33.8-46.8-33.8c-27.2,0-49.2,22-49.2,49.2s22,49.2,49.2,49.2
		c18,0,33.8-9.7,42.4-24.1C100.1,81.5,99,81.4,98,81.2z"/>
	<path class="st3" d="M106,81.4c-9,16.9-26.7,28.4-47.2,28.4c-29.4,0-53.4-23.9-53.4-53.4S29.4,3.1,58.8,3.1
		c24.6,0,45.4,16.8,51.5,39.5c1.3,0.7,2.5,1.6,3.5,2.6C108.6,19.6,86,0.3,58.8,0.3c-31,0-56.2,25.1-56.2,56.2s25.1,56.2,56.2,56.2
		c22.3,0,41.6-13.1,50.7-31.9C108.4,81,107.2,81.3,106,81.4z"/>
</g>
</svg>
